<?xml version="1.0" encoding="utf-8"?>
<svg version="1.1" xmlns="http://www.w3.org/2000/svg" x="0px" y="0px"
	 width="229.351px" height="78.036px" viewBox="0 0 229.351 78.036" enable-background="new 0 0 229.351 78.036"
	 xml:space="preserve">
<g>
	<path fill="#58B947" d="M16.933,40.894c0.115,14.775,0.197,30.031,0.233,37.088c5.999-0.338,12.229-2.482,13.95-10.648
		c1.256-5.96,1.548-12.718,1.557-19.798L16.933,40.894z"/>
	<path fill="#58B947" d="M15.236,78.036c0.099,0,0.199-0.002,0.299-0.002l0.418-36.053L3.201,72.205
		C5.711,76.917,10.141,78.036,15.236,78.036z"/>
	<path fill="#FFD231" d="M0,47.192c0,7.203,0.397,14.057,1.557,20.133c0.373,1.956,0.936,3.553,1.644,4.88l12.752-30.224l0.017-1.5
		L0.647,34.016C0.226,38.197,0,42.618,0,47.192z"/>
	<path fill="#086797" d="M26.146,9.451c-0.162-0.197-0.325-0.461-0.485-0.832c-0.256-0.598-0.519-1.11-0.961-0.633
		c-1.298,1.405-2.621,2.742-4.679,3.144c0.148-0.162,0.282-0.337,0.444-0.482c1.48-1.323,2.906-2.7,4.033-4.334
		C22.096,2.305,19.311,0,16.337,0C11.483,0,7.125,6.121,4.133,15.829C4.124,15.915,4.111,16,4.1,16.086
		c-0.079,0.659,0.142,1.469,0.492,2.048c1.902,3.153,4.508,5.7,7.233,8.134c0.259,0.232,0.475,0.513,0.712,0.771
		C9.236,26.395,7.115,24.252,5.033,22c-0.706-0.765-1.664-1.739-2.075-0.781c-0.165,0.385-0.326,0.712-0.483,1.008
		C1.69,25.856,1.07,29.815,0.647,34.016l15.323,6.465l0.415-35.793c0.207,0,0.396,16.885,0.537,34.875l10.917-25.874
		C27.309,12.167,26.744,10.75,26.146,9.451z"/>
	<path fill="#672266" d="M32.675,47.192c0-6.945-0.523-13.531-1.456-19.467c-0.446-0.846-0.901-1.487-1.511-0.729
		c-1.923,2.391-3.893,4.674-7.141,5.541c0.218-0.273,0.414-0.568,0.657-0.816c2.552-2.615,4.977-5.335,6.658-8.611
		c0.138-0.268,0.242-0.582,0.309-0.904c-0.67-3.097-1.46-5.956-2.352-8.519L16.922,39.563c0.003,0.443,0.007,0.887,0.01,1.331
		l15.741,6.642C32.673,47.42,32.675,47.308,32.675,47.192z"/>
</g>
<g>
	<polygon fill="#010101" points="59.361,37.669 61.692,37.669 61.692,21.011 67.647,21.011 67.647,18.933 53.434,18.933 
		53.434,21.011 59.361,21.011 	"/>
	<polygon fill="#010101" points="83.014,35.589 73.07,35.589 73.07,29.128 79.696,29.128 79.696,27.051 73.07,27.051 73.07,21.012 
		83.014,21.012 83.014,18.933 70.739,18.933 70.739,37.667 83.014,37.667 	"/>
	<polygon fill="#010101" points="105.292,37.669 108.185,37.669 99.701,27.837 107.51,18.933 104.589,18.933 97.017,27.788 
		98.185,29.241 	"/>
	<polygon fill="#010101" points="96.302,31.376 96.302,28.624 96.302,18.933 93.971,18.933 93.971,37.669 96.302,37.669 	"/>
	<path fill="#010101" d="M113.159,33.513l0.674-2.08l0.497-1.271h7.128l0.493,1.271l0.702,2.08l1.657,4.154h2.584l-7.555-18.734
		h-2.895l-7.527,18.734h2.584L113.159,33.513z M117.906,21.012l2.732,7.04h-5.484L117.906,21.012z"/>
	<polygon fill="#010101" points="131.671,29.854 141.067,29.854 141.067,37.667 143.398,37.667 143.398,18.933 141.067,18.933 
		141.067,27.774 131.671,27.774 131.671,18.933 129.339,18.933 129.339,37.667 131.671,37.667 	"/>
	<path fill="#010101" d="M155.423,38.005c5.084,0,7.639-2.977,7.639-7.639V18.933h-2.332v11.404c0,3.428-1.853,5.59-5.307,5.59
		c-3.455,0-5.311-2.162-5.311-5.59V18.933h-2.331v11.461C147.782,34.999,150.339,38.005,155.423,38.005z"/>
	<path fill="#010101" d="M183.235,38.007c5.534,0,9.298-4.158,9.298-9.693c0-5.532-3.764-9.69-9.298-9.69
		c-5.562,0-9.298,4.158-9.298,9.69C173.937,33.849,177.673,38.007,183.235,38.007z M183.235,20.702c4.187,0,6.882,3.23,6.882,7.611
		c0,4.355-2.695,7.613-6.882,7.613c-4.214,0-6.882-3.258-6.882-7.613C176.353,23.932,179.021,20.702,183.235,20.702z"/>
	<path fill="#010101" d="M197.738,30.226v-2.053v-7.161h2.04h2.876c2.22,0,3.736,1.46,3.736,3.567c0,2.106-1.517,3.594-3.736,3.594
		h-2.495l6.091,9.494h2.754l-5.058-7.639c2.556-0.225,4.858-2.078,4.858-5.45c0-3.455-2.442-5.646-5.871-5.646h-3.237h-1.958h-2.331
		v18.734h2.331V30.226z"/>
	<path fill="#010101" d="M215.615,33.513l0.674-2.08l0.497-1.271h7.128l0.493,1.271l0.702,2.08l1.658,4.154h2.584l-7.555-18.734
		h-2.895l-7.528,18.734h2.585L215.615,33.513z M220.363,21.012l2.732,7.04h-5.484L220.363,21.012z"/>
	<polygon fill="#010101" points="53.434,53.054 55.685,53.054 55.685,59.382 56.572,59.382 56.572,53.054 58.833,53.054 
		58.833,52.265 53.434,52.265 	"/>
	<polygon fill="#010101" points="66.125,55.327 61.964,55.327 61.964,52.265 61.079,52.265 61.079,59.382 61.964,59.382 
		61.964,56.118 66.125,56.118 66.125,59.382 67.012,59.382 67.012,52.265 66.125,52.265 	"/>
	<polygon fill="#010101" points="69.749,59.382 74.412,59.382 74.412,58.593 70.633,58.593 70.633,56.138 74.336,56.138 
		74.336,55.349 70.633,55.349 70.633,53.054 74.412,53.054 74.412,52.265 69.749,52.265 	"/>
	<path fill="#010101" d="M84.052,58.72c-1.525,0-2.71-1.205-2.71-2.891c0-1.695,1.185-2.893,2.71-2.893
		c0.844,0,1.58,0.439,1.984,1.037l0.748-0.418c-0.565-0.799-1.44-1.408-2.732-1.408c-2.017,0-3.628,1.492-3.628,3.682
		c0,2.188,1.611,3.682,3.628,3.682c1.292,0,2.145-0.598,2.742-1.41l-0.758-0.414C85.632,58.294,84.896,58.72,84.052,58.72z"/>
	<polygon fill="#010101" points="89.883,52.265 88.999,52.265 88.999,59.382 93.191,59.382 93.191,58.593 89.883,58.593 	"/>
	<path fill="#010101" d="M98.392,52.147c-2.111,0-3.532,1.58-3.532,3.682c0,2.104,1.421,3.682,3.532,3.682
		c2.104,0,3.532-1.578,3.532-3.682C101.924,53.728,100.496,52.147,98.392,52.147z M98.392,58.72c-1.602,0-2.613-1.236-2.613-2.891
		c0-1.664,1.012-2.893,2.613-2.893c1.59,0,2.613,1.229,2.613,2.893C101.005,57.483,99.982,58.72,98.392,58.72z"/>
	<path fill="#010101" d="M106.113,52.265l-2.859,7.117h0.98l0.63-1.578h3.608l0.629,1.578h0.981l-2.871-7.117H106.113z
		 M105.121,57.015l1.548-3.961l1.536,3.961H105.121z"/>
	<polygon fill="#010101" points="117.224,52.265 116.115,52.265 112.966,55.946 112.966,52.265 112.082,52.265 112.082,59.382 
		112.966,59.382 112.966,56.993 113.681,56.183 116.381,59.382 117.48,59.382 114.257,55.647 	"/>
	<path fill="#010101" d="M126.631,52.147c-2.112,0-3.532,1.58-3.532,3.682c0,2.104,1.42,3.682,3.532,3.682
		c2.103,0,3.533-1.578,3.533-3.682C130.165,53.728,128.734,52.147,126.631,52.147z M126.631,58.72c-1.601,0-2.612-1.236-2.612-2.891
		c0-1.664,1.012-2.893,2.612-2.893c1.59,0,2.614,1.229,2.614,2.893C129.246,57.483,128.221,58.72,126.631,58.72z"/>
	<polygon fill="#010101" points="132.624,59.382 133.508,59.382 133.508,56.138 137.211,56.138 137.211,55.349 133.508,55.349 
		133.508,53.054 137.287,53.054 137.287,52.265 132.624,52.265 	"/>
	<polygon fill="#010101" points="148.432,55.327 144.27,55.327 144.27,52.265 143.384,52.265 143.384,59.382 144.27,59.382 
		144.27,56.118 148.432,56.118 148.432,59.382 149.317,59.382 149.317,52.265 148.432,52.265 	"/>
	<polygon fill="#010101" points="152.054,59.382 156.717,59.382 156.717,58.593 152.94,58.593 152.94,56.138 156.643,56.138 
		156.643,55.349 152.94,55.349 152.94,53.054 156.717,53.054 156.717,52.265 152.054,52.265 	"/>
	<path fill="#010101" d="M161.321,52.265l-2.859,7.117h0.979l0.631-1.578h3.607l0.629,1.578h0.982l-2.87-7.117H161.321z
		 M160.329,57.015l1.548-3.961l1.536,3.961H160.329z"/>
	<polygon fill="#010101" points="168.175,52.265 167.291,52.265 167.291,59.382 171.482,59.382 171.482,58.593 168.175,58.593 	"/>
	<polygon fill="#010101" points="172.245,53.054 174.496,53.054 174.496,59.382 175.382,59.382 175.382,53.054 177.644,53.054 
		177.644,52.265 172.245,52.265 	"/>
	<polygon fill="#010101" points="184.935,55.327 180.773,55.327 180.773,52.265 179.888,52.265 179.888,59.382 180.773,59.382 
		180.773,56.118 184.935,56.118 184.935,59.382 185.822,59.382 185.822,52.265 184.935,52.265 	"/>
</g>
</svg>
